<?xml version="1.0" encoding="UTF-8" standalone="no"?>
<!DOCTYPE svg PUBLIC "-//W3C//DTD SVG 1.1//EN"
 "http://www.w3.org/Graphics/SVG/1.1/DTD/svg11.dtd">
<!-- Generated by graphviz version 2.36.0 (20140111.2315)
 -->
<!-- Title: %3 Pages: 1 -->
<svg width="1826pt" height="98pt"
 viewBox="0.00 0.00 1826.00 98.00" xmlns="http://www.w3.org/2000/svg" xmlns:xlink="http://www.w3.org/1999/xlink">
<g id="graph0" class="graph" transform="scale(1 1) rotate(0) translate(4 94)">
<title>%3</title>
<polygon fill="white" stroke="none" points="-4,4 -4,-94 1822,-94 1822,4 -4,4"/>
<!-- 0 -->
<g id="node1" class="node"><title>0</title>
<ellipse fill="none" stroke="black" cx="53" cy="-41" rx="52.7911" ry="18"/>
<text text-anchor="middle" x="53" y="-37.3" font-family="Times,serif" font-size="14.00">0 01110000</text>
</g>
<!-- 1 -->
<g id="node2" class="node"><title>1</title>
<ellipse fill="none" stroke="black" cx="267" cy="-72" rx="52.7911" ry="18"/>
<text text-anchor="middle" x="267" y="-68.3" font-family="Times,serif" font-size="14.00">1 00110000</text>
</g>
<!-- 0&#45;&#45;1 -->
<g id="edge2" class="edge"><title>0&#45;&#45;1</title>
<path fill="none" stroke="black" d="M101.577,-47.957C136.37,-53.0446 183.374,-59.918 218.216,-65.0127"/>
<text text-anchor="middle" x="160" y="-65.8" font-family="Times,serif" font-size="14.00">00110101 70</text>
</g>
<!-- 3 -->
<g id="node4" class="node"><title>3</title>
<ellipse fill="none" stroke="black" cx="267" cy="-18" rx="52.7911" ry="18"/>
<text text-anchor="middle" x="267" y="-14.3" font-family="Times,serif" font-size="14.00">3 11101110</text>
</g>
<!-- 0&#45;&#45;3 -->
<g id="edge1" class="edge"><title>0&#45;&#45;3</title>
<path fill="none" stroke="black" d="M97.5384,-31.3536C106.267,-29.6853 115.398,-28.1276 124,-27 153.759,-23.099 187.256,-20.8736 214.24,-19.612"/>
<text text-anchor="middle" x="160" y="-30.8" font-family="Times,serif" font-size="14.00">01010101 16</text>
</g>
<!-- 2 -->
<g id="node3" class="node"><title>2</title>
<ellipse fill="none" stroke="black" cx="481" cy="-72" rx="52.7911" ry="18"/>
<text text-anchor="middle" x="481" y="-68.3" font-family="Times,serif" font-size="14.00">2 00000111</text>
</g>
<!-- 1&#45;&#45;2 -->
<g id="edge3" class="edge"><title>1&#45;&#45;2</title>
<path fill="none" stroke="black" d="M319.861,-72C352.836,-72 395.365,-72 428.307,-72"/>
<text text-anchor="middle" x="374" y="-75.8" font-family="Times,serif" font-size="14.00">10011110 12</text>
</g>
<!-- 4 -->
<g id="node5" class="node"><title>4</title>
<ellipse fill="none" stroke="black" cx="695" cy="-72" rx="52.7911" ry="18"/>
<text text-anchor="middle" x="695" y="-68.3" font-family="Times,serif" font-size="14.00">4 10001101</text>
</g>
<!-- 2&#45;&#45;4 -->
<g id="edge4" class="edge"><title>2&#45;&#45;4</title>
<path fill="none" stroke="black" d="M533.861,-72C566.836,-72 609.365,-72 642.307,-72"/>
<text text-anchor="middle" x="588" y="-75.8" font-family="Times,serif" font-size="14.00">01001101 49</text>
</g>
<!-- 5 -->
<g id="node6" class="node"><title>5</title>
<ellipse fill="none" stroke="black" cx="909" cy="-72" rx="52.7911" ry="18"/>
<text text-anchor="middle" x="909" y="-68.3" font-family="Times,serif" font-size="14.00">5 11110010</text>
</g>
<!-- 4&#45;&#45;5 -->
<g id="edge5" class="edge"><title>4&#45;&#45;5</title>
<path fill="none" stroke="black" d="M747.861,-72C780.836,-72 823.365,-72 856.307,-72"/>
<text text-anchor="middle" x="802" y="-75.8" font-family="Times,serif" font-size="14.00">01000101 64</text>
</g>
<!-- 6 -->
<g id="node7" class="node"><title>6</title>
<ellipse fill="none" stroke="black" cx="1123" cy="-72" rx="52.7911" ry="18"/>
<text text-anchor="middle" x="1123" y="-68.3" font-family="Times,serif" font-size="14.00">6 01110000</text>
</g>
<!-- 5&#45;&#45;6 -->
<g id="edge6" class="edge"><title>5&#45;&#45;6</title>
<path fill="none" stroke="black" d="M961.861,-72C994.836,-72 1037.37,-72 1070.31,-72"/>
<text text-anchor="middle" x="1016" y="-75.8" font-family="Times,serif" font-size="14.00">10011111 82</text>
</g>
<!-- 7 -->
<g id="node8" class="node"><title>7</title>
<ellipse fill="none" stroke="black" cx="1337" cy="-72" rx="52.7911" ry="18"/>
<text text-anchor="middle" x="1337" y="-68.3" font-family="Times,serif" font-size="14.00">7 01111100</text>
</g>
<!-- 6&#45;&#45;7 -->
<g id="edge7" class="edge"><title>6&#45;&#45;7</title>
<path fill="none" stroke="black" d="M1175.86,-72C1208.84,-72 1251.37,-72 1284.31,-72"/>
<text text-anchor="middle" x="1230" y="-75.8" font-family="Times,serif" font-size="14.00">10000111 69</text>
</g>
<!-- 8 -->
<g id="node9" class="node"><title>8</title>
<ellipse fill="none" stroke="black" cx="1551" cy="-72" rx="52.7911" ry="18"/>
<text text-anchor="middle" x="1551" y="-68.3" font-family="Times,serif" font-size="14.00">8 01101100</text>
</g>
<!-- 7&#45;&#45;8 -->
<g id="edge8" class="edge"><title>7&#45;&#45;8</title>
<path fill="none" stroke="black" d="M1389.86,-72C1422.84,-72 1465.37,-72 1498.31,-72"/>
<text text-anchor="middle" x="1444" y="-75.8" font-family="Times,serif" font-size="14.00">00100011 50</text>
</g>
<!-- 9 -->
<g id="node10" class="node"><title>9</title>
<ellipse fill="none" stroke="black" cx="1765" cy="-72" rx="52.7911" ry="18"/>
<text text-anchor="middle" x="1765" y="-68.3" font-family="Times,serif" font-size="14.00">9 01010010</text>
</g>
<!-- 8&#45;&#45;9 -->
<g id="edge9" class="edge"><title>8&#45;&#45;9</title>
<path fill="none" stroke="black" d="M1603.86,-72C1636.84,-72 1679.37,-72 1712.31,-72"/>
<text text-anchor="middle" x="1658" y="-75.8" font-family="Times,serif" font-size="14.00">10000011 59</text>
</g>
</g>
</svg>
