<?xml version="1.0" encoding="UTF-8" standalone="no"?>
<!DOCTYPE svg PUBLIC "-//W3C//DTD SVG 1.1//EN"
 "http://www.w3.org/Graphics/SVG/1.1/DTD/svg11.dtd">
<!-- Generated by graphviz version 2.36.0 (20140111.2315)
 -->
<!-- Title: %3 Pages: 1 -->
<svg width="1224pt" height="357pt"
 viewBox="0.00 0.00 1224.00 357.00" xmlns="http://www.w3.org/2000/svg" xmlns:xlink="http://www.w3.org/1999/xlink">
<g id="graph0" class="graph" transform="scale(1 1) rotate(0) translate(4 353)">
<title>%3</title>
<polygon fill="white" stroke="none" points="-4,4 -4,-353 1220,-353 1220,4 -4,4"/>
<!-- 0 -->
<g id="node1" class="node"><title>0</title>
<ellipse fill="none" stroke="black" cx="715" cy="-288" rx="52.7911" ry="18"/>
<text text-anchor="middle" x="715" y="-284.3" font-family="Times,serif" font-size="14.00">0 11111111</text>
</g>
<!-- 15 -->
<g id="node16" class="node"><title>15</title>
<ellipse fill="none" stroke="black" cx="937" cy="-288" rx="57.3905" ry="18"/>
<text text-anchor="middle" x="937" y="-284.3" font-family="Times,serif" font-size="14.00">15 00101011</text>
</g>
<!-- 0&#45;&#45;15 -->
<g id="edge20" class="edge"><title>0&#45;&#45;15</title>
<path fill="none" stroke="black" d="M767.858,-288C801.395,-288 845.051,-288 879.474,-288"/>
<text text-anchor="middle" x="826" y="-291.8" font-family="Times,serif" font-size="14.00">01010000 51</text>
</g>
<!-- 1 -->
<g id="node2" class="node"><title>1</title>
<ellipse fill="none" stroke="black" cx="53" cy="-282" rx="52.7911" ry="18"/>
<text text-anchor="middle" x="53" y="-278.3" font-family="Times,serif" font-size="14.00">1 00101010</text>
</g>
<!-- 3 -->
<g id="node4" class="node"><title>3</title>
<ellipse fill="none" stroke="black" cx="271" cy="-126" rx="52.7911" ry="18"/>
<text text-anchor="middle" x="271" y="-122.3" font-family="Times,serif" font-size="14.00">3 11110010</text>
</g>
<!-- 1&#45;&#45;3 -->
<g id="edge1" class="edge"><title>1&#45;&#45;3</title>
<path fill="none" stroke="black" d="M76.7075,-265.6C118.3,-235.561 206.231,-172.055 247.597,-142.18"/>
<text text-anchor="middle" x="160" y="-230.8" font-family="Times,serif" font-size="14.00">00001000 34</text>
</g>
<!-- 1&#45;&#45;15 -->
<g id="edge2" class="edge"><title>1&#45;&#45;15</title>
<path fill="none" stroke="black" d="M88.1805,-295.527C130.259,-310.934 204.236,-334 270,-334 270,-334 270,-334 716,-334 780.774,-334 854.048,-314.658 897.563,-301.059"/>
<text text-anchor="middle" x="493" y="-337.8" font-family="Times,serif" font-size="14.00">00110010 95</text>
</g>
<!-- 2 -->
<g id="node3" class="node"><title>2</title>
<ellipse fill="none" stroke="black" cx="53" cy="-72" rx="52.7911" ry="18"/>
<text text-anchor="middle" x="53" y="-68.3" font-family="Times,serif" font-size="14.00">2 01001001</text>
</g>
<!-- 2&#45;&#45;3 -->
<g id="edge3" class="edge"><title>2&#45;&#45;3</title>
<path fill="none" stroke="black" d="M94.6624,-83.2565C104.268,-85.8547 114.484,-88.5684 124,-91 158.472,-99.8081 197.691,-109.174 226.795,-115.998"/>
<text text-anchor="middle" x="160" y="-112.8" font-family="Times,serif" font-size="14.00">10010100 90</text>
</g>
<!-- 10 -->
<g id="node11" class="node"><title>10</title>
<ellipse fill="none" stroke="black" cx="271" cy="-18" rx="57.3905" ry="18"/>
<text text-anchor="middle" x="271" y="-14.3" font-family="Times,serif" font-size="14.00">10 11000010</text>
</g>
<!-- 2&#45;&#45;10 -->
<g id="edge4" class="edge"><title>2&#45;&#45;10</title>
<path fill="none" stroke="black" d="M94.6624,-60.7435C104.268,-58.1453 114.484,-55.4316 124,-53 157.588,-44.4177 195.683,-35.306 224.536,-28.5315"/>
<text text-anchor="middle" x="160" y="-56.8" font-family="Times,serif" font-size="14.00">10101010 50</text>
</g>
<!-- 13 -->
<g id="node14" class="node"><title>13</title>
<ellipse fill="none" stroke="black" cx="271" cy="-72" rx="57.3905" ry="18"/>
<text text-anchor="middle" x="271" y="-68.3" font-family="Times,serif" font-size="14.00">13 11001110</text>
</g>
<!-- 2&#45;&#45;13 -->
<g id="edge5" class="edge"><title>2&#45;&#45;13</title>
<path fill="none" stroke="black" d="M105.737,-72C138.312,-72 180.361,-72 213.761,-72"/>
<text text-anchor="middle" x="160" y="-75.8" font-family="Times,serif" font-size="14.00">10001111 19</text>
</g>
<!-- 7 -->
<g id="node8" class="node"><title>7</title>
<ellipse fill="none" stroke="black" cx="493" cy="-126" rx="52.7911" ry="18"/>
<text text-anchor="middle" x="493" y="-122.3" font-family="Times,serif" font-size="14.00">7 10111110</text>
</g>
<!-- 3&#45;&#45;7 -->
<g id="edge6" class="edge"><title>3&#45;&#45;7</title>
<path fill="none" stroke="black" d="M323.858,-126C358.92,-126 405.041,-126 440.109,-126"/>
<text text-anchor="middle" x="382" y="-129.8" font-family="Times,serif" font-size="14.00">01001100 12</text>
</g>
<!-- 4 -->
<g id="node5" class="node"><title>4</title>
<ellipse fill="none" stroke="black" cx="271" cy="-199" rx="52.7911" ry="18"/>
<text text-anchor="middle" x="271" y="-195.3" font-family="Times,serif" font-size="14.00">4 00111100</text>
</g>
<!-- 5 -->
<g id="node6" class="node"><title>5</title>
<ellipse fill="none" stroke="black" cx="493" cy="-234" rx="52.7911" ry="18"/>
<text text-anchor="middle" x="493" y="-230.3" font-family="Times,serif" font-size="14.00">5 01111100</text>
</g>
<!-- 4&#45;&#45;5 -->
<g id="edge7" class="edge"><title>4&#45;&#45;5</title>
<path fill="none" stroke="black" d="M318.926,-206.465C356.027,-212.368 407.587,-220.571 444.768,-226.486"/>
<text text-anchor="middle" x="382" y="-224.8" font-family="Times,serif" font-size="14.00">00010001 65</text>
</g>
<!-- 4&#45;&#45;7 -->
<g id="edge8" class="edge"><title>4&#45;&#45;7</title>
<path fill="none" stroke="black" d="M309.32,-186.617C349.775,-173.193 413.97,-151.892 454.497,-138.444"/>
<text text-anchor="middle" x="382" y="-177.8" font-family="Times,serif" font-size="14.00">10111001 64</text>
</g>
<!-- 8 -->
<g id="node9" class="node"><title>8</title>
<ellipse fill="none" stroke="black" cx="715" cy="-234" rx="52.7911" ry="18"/>
<text text-anchor="middle" x="715" y="-230.3" font-family="Times,serif" font-size="14.00">8 10001010</text>
</g>
<!-- 5&#45;&#45;8 -->
<g id="edge9" class="edge"><title>5&#45;&#45;8</title>
<path fill="none" stroke="black" d="M545.858,-234C580.92,-234 627.041,-234 662.109,-234"/>
<text text-anchor="middle" x="604" y="-237.8" font-family="Times,serif" font-size="14.00">10110111 10</text>
</g>
<!-- 14 -->
<g id="node15" class="node"><title>14</title>
<ellipse fill="none" stroke="black" cx="715" cy="-180" rx="57.3905" ry="18"/>
<text text-anchor="middle" x="715" y="-176.3" font-family="Times,serif" font-size="14.00">14 10000101</text>
</g>
<!-- 5&#45;&#45;14 -->
<g id="edge10" class="edge"><title>5&#45;&#45;14</title>
<path fill="none" stroke="black" d="M535.457,-223.231C546.058,-220.511 557.444,-217.62 568,-215 601.646,-206.648 639.739,-197.528 668.577,-190.691"/>
<text text-anchor="middle" x="604" y="-218.8" font-family="Times,serif" font-size="14.00">10110011 11</text>
</g>
<!-- 6 -->
<g id="node7" class="node"><title>6</title>
<ellipse fill="none" stroke="black" cx="493" cy="-180" rx="52.7911" ry="18"/>
<text text-anchor="middle" x="493" y="-176.3" font-family="Times,serif" font-size="14.00">6 11110101</text>
</g>
<!-- 6&#45;&#45;14 -->
<g id="edge11" class="edge"><title>6&#45;&#45;14</title>
<path fill="none" stroke="black" d="M530.836,-167.382C542.569,-163.951 555.699,-160.712 568,-159 599.695,-154.59 608.305,-154.59 640,-159 651.64,-160.62 664.021,-163.607 675.259,-166.831"/>
<text text-anchor="middle" x="604" y="-162.8" font-family="Times,serif" font-size="14.00">00100001 51</text>
</g>
<!-- 16 -->
<g id="node17" class="node"><title>16</title>
<ellipse fill="none" stroke="black" cx="715" cy="-72" rx="57.3905" ry="18"/>
<text text-anchor="middle" x="715" y="-68.3" font-family="Times,serif" font-size="14.00">16 01111010</text>
</g>
<!-- 6&#45;&#45;16 -->
<g id="edge12" class="edge"><title>6&#45;&#45;16</title>
<path fill="none" stroke="black" d="M526.824,-166.053C534.652,-162.222 542.815,-157.789 550,-153 558.906,-147.063 559.005,-142.801 568,-137 602.277,-114.896 645.329,-96.7448 675.777,-85.2952"/>
<text text-anchor="middle" x="604" y="-140.8" font-family="Times,serif" font-size="14.00">00110101 29</text>
</g>
<!-- 9 -->
<g id="node10" class="node"><title>9</title>
<ellipse fill="none" stroke="black" cx="715" cy="-126" rx="52.7911" ry="18"/>
<text text-anchor="middle" x="715" y="-122.3" font-family="Times,serif" font-size="14.00">9 10111101</text>
</g>
<!-- 17 -->
<g id="node18" class="node"><title>17</title>
<ellipse fill="none" stroke="black" cx="937" cy="-145" rx="57.3905" ry="18"/>
<text text-anchor="middle" x="937" y="-141.3" font-family="Times,serif" font-size="14.00">17 01100101</text>
</g>
<!-- 9&#45;&#45;17 -->
<g id="edge13" class="edge"><title>9&#45;&#45;17</title>
<path fill="none" stroke="black" d="M767.424,-128.255C795.427,-129.713 830.661,-131.921 862,-135 869.354,-135.723 877.102,-136.619 884.704,-137.576"/>
<text text-anchor="middle" x="826" y="-138.8" font-family="Times,serif" font-size="14.00">00010110 13</text>
</g>
<!-- 18 -->
<g id="node19" class="node"><title>18</title>
<ellipse fill="none" stroke="black" cx="493" cy="-18" rx="57.3905" ry="18"/>
<text text-anchor="middle" x="493" y="-14.3" font-family="Times,serif" font-size="14.00">18 00111001</text>
</g>
<!-- 10&#45;&#45;18 -->
<g id="edge14" class="edge"><title>10&#45;&#45;18</title>
<path fill="none" stroke="black" d="M328.37,-18C361.343,-18 402.829,-18 435.777,-18"/>
<text text-anchor="middle" x="382" y="-21.8" font-family="Times,serif" font-size="14.00">10001100 9</text>
</g>
<!-- 11 -->
<g id="node12" class="node"><title>11</title>
<ellipse fill="none" stroke="black" cx="1159" cy="-288" rx="57.3905" ry="18"/>
<text text-anchor="middle" x="1159" y="-284.3" font-family="Times,serif" font-size="14.00">11 10101000</text>
</g>
<!-- 12 -->
<g id="node13" class="node"><title>12</title>
<ellipse fill="none" stroke="black" cx="493" cy="-72" rx="57.3905" ry="18"/>
<text text-anchor="middle" x="493" y="-68.3" font-family="Times,serif" font-size="14.00">12 01010001</text>
</g>
<!-- 12&#45;&#45;16 -->
<g id="edge15" class="edge"><title>12&#45;&#45;16</title>
<path fill="none" stroke="black" d="M550.37,-72C583.343,-72 624.829,-72 657.777,-72"/>
<text text-anchor="middle" x="604" y="-75.8" font-family="Times,serif" font-size="14.00">01001011 90</text>
</g>
<!-- 13&#45;&#45;18 -->
<g id="edge16" class="edge"><title>13&#45;&#45;18</title>
<path fill="none" stroke="black" d="M317.423,-61.3089C346.261,-54.4724 384.354,-45.3517 418,-37 427.784,-34.5715 438.28,-31.9103 448.204,-29.3687"/>
<text text-anchor="middle" x="382" y="-58.8" font-family="Times,serif" font-size="14.00">00111010 44</text>
</g>
<!-- 14&#45;&#45;15 -->
<g id="edge17" class="edge"><title>14&#45;&#45;15</title>
<path fill="none" stroke="black" d="M747.127,-194.943C755.232,-198.852 763.949,-203.071 772,-207 818.661,-229.771 872.616,-256.496 905.514,-272.835"/>
<text text-anchor="middle" x="826" y="-253.8" font-family="Times,serif" font-size="14.00">00100100 41</text>
</g>
<!-- 14&#45;&#45;17 -->
<g id="edge18" class="edge"><title>14&#45;&#45;17</title>
<path fill="none" stroke="black" d="M766.472,-171.97C802.12,-166.299 849.702,-158.729 885.382,-153.053"/>
<text text-anchor="middle" x="826" y="-171.8" font-family="Times,serif" font-size="14.00">10110000 18</text>
</g>
<!-- 15&#45;&#45;11 -->
<g id="edge21" class="edge"><title>15&#45;&#45;11</title>
<path fill="none" stroke="black" d="M994.37,-288C1027.34,-288 1068.83,-288 1101.78,-288"/>
<text text-anchor="middle" x="1048" y="-291.8" font-family="Times,serif" font-size="14.00">00101111 52</text>
</g>
<!-- 19 -->
<g id="node20" class="node"><title>19</title>
<ellipse fill="none" stroke="black" cx="715" cy="-18" rx="57.3905" ry="18"/>
<text text-anchor="middle" x="715" y="-14.3" font-family="Times,serif" font-size="14.00">19 00110111</text>
</g>
<!-- 18&#45;&#45;19 -->
<g id="edge19" class="edge"><title>18&#45;&#45;19</title>
<path fill="none" stroke="black" d="M550.37,-18C583.343,-18 624.829,-18 657.777,-18"/>
<text text-anchor="middle" x="604" y="-21.8" font-family="Times,serif" font-size="14.00">01110001 5</text>
</g>
</g>
</svg>
