<?xml version="1.0" encoding="UTF-8" standalone="no"?>
<!DOCTYPE svg PUBLIC "-//W3C//DTD SVG 1.1//EN"
 "http://www.w3.org/Graphics/SVG/1.1/DTD/svg11.dtd">
<!-- Generated by graphviz version 2.36.0 (20140111.2315)
 -->
<!-- Title: %3 Pages: 1 -->
<svg width="1668pt" height="1406pt"
 viewBox="0.00 0.00 1668.00 1406.15" xmlns="http://www.w3.org/2000/svg" xmlns:xlink="http://www.w3.org/1999/xlink">
<g id="graph0" class="graph" transform="scale(1 1) rotate(0) translate(4 1402.15)">
<title>%3</title>
<polygon fill="white" stroke="none" points="-4,4 -4,-1402.15 1664,-1402.15 1664,4 -4,4"/>
<!-- 0 -->
<g id="node1" class="node"><title>0</title>
<ellipse fill="none" stroke="black" cx="937" cy="-1261.15" rx="52.7911" ry="18"/>
<text text-anchor="middle" x="937" y="-1257.45" font-family="Times,serif" font-size="14.00">0 11111111</text>
</g>
<!-- 21 -->
<g id="node22" class="node"><title>21</title>
<ellipse fill="none" stroke="black" cx="1159" cy="-1245.15" rx="57.3905" ry="18"/>
<text text-anchor="middle" x="1159" y="-1241.45" font-family="Times,serif" font-size="14.00">21 01010110</text>
</g>
<!-- 0&#45;&#45;21 -->
<g id="edge1" class="edge"><title>0&#45;&#45;21</title>
<path fill="none" stroke="black" d="M988.749,-1257.46C1022.88,-1254.98 1067.87,-1251.71 1102.88,-1249.16"/>
<text text-anchor="middle" x="1048" y="-1258.95" font-family="Times,serif" font-size="14.00">00100001 51</text>
</g>
<!-- 33 -->
<g id="node34" class="node"><title>33</title>
<ellipse fill="none" stroke="black" cx="1159" cy="-1160.15" rx="57.3905" ry="18"/>
<text text-anchor="middle" x="1159" y="-1156.45" font-family="Times,serif" font-size="14.00">33 10100110</text>
</g>
<!-- 0&#45;&#45;33 -->
<g id="edge2" class="edge"><title>0&#45;&#45;33</title>
<path fill="none" stroke="black" d="M971.689,-1247.42C1013.11,-1230.53 1078.63,-1203.73 1084,-1201.15 1100.02,-1193.46 1117.43,-1183.88 1131.33,-1175.91"/>
<text text-anchor="middle" x="1048" y="-1233.95" font-family="Times,serif" font-size="14.00">00110101 29</text>
</g>
<!-- 38 -->
<g id="node39" class="node"><title>38</title>
<ellipse fill="none" stroke="black" cx="1603" cy="-1127.15" rx="57.3905" ry="18"/>
<text text-anchor="middle" x="1603" y="-1123.45" font-family="Times,serif" font-size="14.00">38 10110011</text>
</g>
<!-- 0&#45;&#45;38 -->
<g id="edge3" class="edge"><title>0&#45;&#45;38</title>
<path fill="none" stroke="black" d="M982.444,-1270.25C992.144,-1271.88 1002.38,-1273.31 1012,-1274.15 1043.88,-1276.93 1052,-1274.4 1084,-1274.15 1142.67,-1273.71 1158.35,-1283.08 1216,-1272.15 1354.56,-1245.9 1508.45,-1174.19 1572.02,-1142.53"/>
<text text-anchor="middle" x="1270" y="-1270.95" font-family="Times,serif" font-size="14.00">00010110 13</text>
</g>
<!-- 1 -->
<g id="node2" class="node"><title>1</title>
<ellipse fill="none" stroke="black" cx="53" cy="-697.153" rx="52.7911" ry="18"/>
<text text-anchor="middle" x="53" y="-693.453" font-family="Times,serif" font-size="14.00">1 00101010</text>
</g>
<!-- 7 -->
<g id="node8" class="node"><title>7</title>
<ellipse fill="none" stroke="black" cx="267" cy="-697.153" rx="52.7911" ry="18"/>
<text text-anchor="middle" x="267" y="-693.453" font-family="Times,serif" font-size="14.00">7 10111110</text>
</g>
<!-- 1&#45;&#45;7 -->
<g id="edge4" class="edge"><title>1&#45;&#45;7</title>
<path fill="none" stroke="black" d="M105.861,-697.153C138.836,-697.153 181.365,-697.153 214.307,-697.153"/>
<text text-anchor="middle" x="160" y="-700.953" font-family="Times,serif" font-size="14.00">10001100 9</text>
</g>
<!-- 10 -->
<g id="node11" class="node"><title>10</title>
<ellipse fill="none" stroke="black" cx="715" cy="-608.153" rx="57.3905" ry="18"/>
<text text-anchor="middle" x="715" y="-604.453" font-family="Times,serif" font-size="14.00">10 11000010</text>
</g>
<!-- 1&#45;&#45;10 -->
<g id="edge5" class="edge"><title>1&#45;&#45;10</title>
<path fill="none" stroke="black" d="M95.6033,-686.508C181.603,-665.117 385.518,-617.559 560,-601.153 593.441,-598.009 631.105,-599.63 660.814,-602.099"/>
<text text-anchor="middle" x="374" y="-636.953" font-family="Times,serif" font-size="14.00">01001011 90</text>
</g>
<!-- 20 -->
<g id="node21" class="node"><title>20</title>
<ellipse fill="none" stroke="black" cx="937" cy="-1109.15" rx="57.3905" ry="18"/>
<text text-anchor="middle" x="937" y="-1105.45" font-family="Times,serif" font-size="14.00">20 00001000</text>
</g>
<!-- 1&#45;&#45;20 -->
<g id="edge6" class="edge"><title>1&#45;&#45;20</title>
<path fill="none" stroke="black" d="M54.6291,-715.174C57.6798,-794.463 72.936,-1112.02 124,-1195.15 164.266,-1260.71 189.065,-1294.15 266,-1294.15 266,-1294.15 266,-1294.15 716,-1294.15 782.832,-1294.15 817.046,-1307.61 862,-1258.15 898.867,-1217.6 847.532,-1180.31 880,-1136.15 884.284,-1130.33 890.161,-1125.7 896.504,-1122.05"/>
<text text-anchor="middle" x="485" y="-1297.95" font-family="Times,serif" font-size="14.00">00111010 44</text>
</g>
<!-- 1&#45;&#45;33 -->
<g id="edge7" class="edge"><title>1&#45;&#45;33</title>
<path fill="none" stroke="black" d="M54.6532,-715.251C57.9382,-799.49 74.4991,-1153.19 124,-1250.15 163.316,-1327.17 179.53,-1383.15 266,-1383.15 266,-1383.15 266,-1383.15 601,-1383.15 724.144,-1383.15 776.297,-1378.58 862,-1290.15 880.194,-1271.38 861.05,-1252.16 880,-1234.15 888.564,-1226.01 1036.39,-1189.47 1112.9,-1170.96"/>
<text text-anchor="middle" x="600" y="-1386.95" font-family="Times,serif" font-size="14.00">00100100 41</text>
</g>
<!-- 35 -->
<g id="node36" class="node"><title>35</title>
<ellipse fill="none" stroke="black" cx="1159" cy="-595.153" rx="57.3905" ry="18"/>
<text text-anchor="middle" x="1159" y="-591.453" font-family="Times,serif" font-size="14.00">35 10100011</text>
</g>
<!-- 1&#45;&#45;35 -->
<g id="edge8" class="edge"><title>1&#45;&#45;35</title>
<path fill="none" stroke="black" d="M57.4403,-679.161C64.5374,-646.387 83.6372,-576.362 124,-533.153 245.309,-403.289 306.291,-359.153 484,-359.153 484,-359.153 484,-359.153 938,-359.153 1012.86,-359.153 1038.98,-383.341 1084,-443.153 1104.1,-469.851 1088.09,-485.768 1102,-516.153 1112.56,-539.236 1130.15,-562.574 1142.8,-577.835"/>
<text text-anchor="middle" x="600" y="-362.953" font-family="Times,serif" font-size="14.00">10110000 18</text>
</g>
<!-- 2 -->
<g id="node3" class="node"><title>2</title>
<ellipse fill="none" stroke="black" cx="485" cy="-1236.15" rx="52.7911" ry="18"/>
<text text-anchor="middle" x="485" y="-1232.45" font-family="Times,serif" font-size="14.00">2 01001001</text>
</g>
<!-- 13 -->
<g id="node14" class="node"><title>13</title>
<ellipse fill="none" stroke="black" cx="937" cy="-964.153" rx="57.3905" ry="18"/>
<text text-anchor="middle" x="937" y="-960.453" font-family="Times,serif" font-size="14.00">13 11001110</text>
</g>
<!-- 2&#45;&#45;13 -->
<g id="edge9" class="edge"><title>2&#45;&#45;13</title>
<path fill="none" stroke="black" d="M535.71,-1241.04C597.024,-1244.42 701.739,-1241.31 772,-1191.15 785.916,-1181.22 777.229,-1168.52 790,-1157.15 815.645,-1134.32 837.784,-1153.49 862,-1129.15 877.776,-1113.3 871.198,-1102.72 880,-1082.15 895.436,-1046.09 915.584,-1004.88 927.025,-981.949"/>
<text text-anchor="middle" x="715" y="-1237.95" font-family="Times,serif" font-size="14.00">01110001 5</text>
</g>
<!-- 19 -->
<g id="node20" class="node"><title>19</title>
<ellipse fill="none" stroke="black" cx="715" cy="-1108.15" rx="57.3905" ry="18"/>
<text text-anchor="middle" x="715" y="-1104.45" font-family="Times,serif" font-size="14.00">19 00110111</text>
</g>
<!-- 2&#45;&#45;19 -->
<g id="edge10" class="edge"><title>2&#45;&#45;19</title>
<path fill="none" stroke="black" d="M513.502,-1220.71C557.206,-1196.18 642.056,-1148.54 686.044,-1123.85"/>
<text text-anchor="middle" x="600" y="-1193.95" font-family="Times,serif" font-size="14.00">01010000 51</text>
</g>
<!-- 32 -->
<g id="node33" class="node"><title>32</title>
<ellipse fill="none" stroke="black" cx="715" cy="-40.1532" rx="57.3905" ry="18"/>
<text text-anchor="middle" x="715" y="-36.4532" font-family="Times,serif" font-size="14.00">32 00010001</text>
</g>
<!-- 2&#45;&#45;32 -->
<g id="edge11" class="edge"><title>2&#45;&#45;32</title>
<path fill="none" stroke="black" d="M518.736,-1222.32C527.844,-1216.8 536.687,-1209.5 542,-1200.15 570.577,-1149.9 529.719,-729.401 560,-680.153 581.254,-645.586 618.793,-670.749 640,-636.153 672.768,-582.699 625.669,-125.873 658,-72.1532 662.619,-64.478 669.82,-58.4748 677.538,-53.8481"/>
<text text-anchor="middle" x="600" y="-683.953" font-family="Times,serif" font-size="14.00">00101111 52</text>
</g>
<!-- 34 -->
<g id="node35" class="node"><title>34</title>
<ellipse fill="none" stroke="black" cx="937" cy="-1322.15" rx="57.3905" ry="18"/>
<text text-anchor="middle" x="937" y="-1318.45" font-family="Times,serif" font-size="14.00">34 10111001</text>
</g>
<!-- 2&#45;&#45;34 -->
<g id="edge12" class="edge"><title>2&#45;&#45;34</title>
<path fill="none" stroke="black" d="M526.969,-1247.26C537.681,-1250 549.242,-1252.82 560,-1255.15 675.661,-1280.27 812.832,-1302.93 885.285,-1314.36"/>
<text text-anchor="middle" x="715" y="-1298.95" font-family="Times,serif" font-size="14.00">10111101 37</text>
</g>
<!-- 3 -->
<g id="node4" class="node"><title>3</title>
<ellipse fill="none" stroke="black" cx="485" cy="-46.1532" rx="52.7911" ry="18"/>
<text text-anchor="middle" x="485" y="-42.4532" font-family="Times,serif" font-size="14.00">3 11110010</text>
</g>
<!-- 3&#45;&#45;32 -->
<g id="edge13" class="edge"><title>3&#45;&#45;32</title>
<path fill="none" stroke="black" d="M536.122,-41.5375C544.103,-40.9617 552.273,-40.466 560,-40.1532 592.324,-38.8449 628.496,-38.7734 657.657,-39.0617"/>
<text text-anchor="middle" x="600" y="-43.9532" font-family="Times,serif" font-size="14.00">00101010 47</text>
</g>
<!-- 4 -->
<g id="node5" class="node"><title>4</title>
<ellipse fill="none" stroke="black" cx="53" cy="-451.153" rx="52.7911" ry="18"/>
<text text-anchor="middle" x="53" y="-447.453" font-family="Times,serif" font-size="14.00">4 00111100</text>
</g>
<!-- 4&#45;&#45;7 -->
<g id="edge14" class="edge"><title>4&#45;&#45;7</title>
<path fill="none" stroke="black" d="M68.9074,-468.451C107.832,-513.619 212.203,-634.728 251.109,-679.874"/>
<text text-anchor="middle" x="160" y="-613.953" font-family="Times,serif" font-size="14.00">10100001 68</text>
</g>
<!-- 4&#45;&#45;20 -->
<g id="edge15" class="edge"><title>4&#45;&#45;20</title>
<path fill="none" stroke="black" d="M58.2089,-469.203C71.3633,-525.283 111.565,-694.075 124,-716.153 219.48,-885.677 283.119,-901.289 428,-1031.15 516.705,-1110.66 568.949,-1099.54 640,-1195.15 653.341,-1213.11 639.57,-1229.48 658,-1242.15 695.415,-1267.89 828.993,-1261.34 862,-1230.15 892.918,-1200.94 854.076,-1169.88 880,-1136.15 884.473,-1130.33 890.521,-1125.7 896.991,-1122.04"/>
<text text-anchor="middle" x="485" y="-1110.95" font-family="Times,serif" font-size="14.00">10110011 48</text>
</g>
<!-- 28 -->
<g id="node29" class="node"><title>28</title>
<ellipse fill="none" stroke="black" cx="715" cy="-516.153" rx="57.3905" ry="18"/>
<text text-anchor="middle" x="715" y="-512.453" font-family="Times,serif" font-size="14.00">28 10001111</text>
</g>
<!-- 4&#45;&#45;28 -->
<g id="edge16" class="edge"><title>4&#45;&#45;28</title>
<path fill="none" stroke="black" d="M105.687,-449.257C240.342,-444.718 594.668,-435.486 640,-462.153 653.732,-470.231 645.993,-482.681 658,-493.153 662.673,-497.229 668.167,-500.648 673.855,-503.496"/>
<text text-anchor="middle" x="374" y="-447.953" font-family="Times,serif" font-size="14.00">00010111 34</text>
</g>
<!-- 30 -->
<g id="node31" class="node"><title>30</title>
<ellipse fill="none" stroke="black" cx="715" cy="-313.153" rx="57.3905" ry="18"/>
<text text-anchor="middle" x="715" y="-309.453" font-family="Times,serif" font-size="14.00">30 01001100</text>
</g>
<!-- 4&#45;&#45;30 -->
<g id="edge17" class="edge"><title>4&#45;&#45;30</title>
<path fill="none" stroke="black" d="M81.0991,-435.682C130.367,-408.467 238.715,-352.77 338,-330.153 449.656,-304.719 584.646,-306.141 658.697,-309.568"/>
<text text-anchor="middle" x="374" y="-333.953" font-family="Times,serif" font-size="14.00">00011001 44</text>
</g>
<!-- 4&#45;&#45;32 -->
<g id="edge18" class="edge"><title>4&#45;&#45;32</title>
<path fill="none" stroke="black" d="M62.3315,-433.308C95.9629,-363.707 229.498,-109.858 428,-19.1532 510.641,18.6096 620.803,-8.14159 677.248,-26.6155"/>
<text text-anchor="middle" x="374" y="-73.9532" font-family="Times,serif" font-size="14.00">01111010 42</text>
</g>
<!-- 5 -->
<g id="node6" class="node"><title>5</title>
<ellipse fill="none" stroke="black" cx="485" cy="-405.153" rx="52.7911" ry="18"/>
<text text-anchor="middle" x="485" y="-401.453" font-family="Times,serif" font-size="14.00">5 01111100</text>
</g>
<!-- 5&#45;&#45;10 -->
<g id="edge19" class="edge"><title>5&#45;&#45;10</title>
<path fill="none" stroke="black" d="M498.529,-422.597C510.554,-439.782 528.789,-467.034 542,-492.153 551.644,-510.49 544.522,-521.381 560,-535.153 587.638,-559.746 606.482,-542.493 640,-558.153 659.104,-567.079 678.795,-580.633 693.057,-591.378"/>
<text text-anchor="middle" x="600" y="-561.953" font-family="Times,serif" font-size="14.00">11000111 63</text>
</g>
<!-- 22 -->
<g id="node23" class="node"><title>22</title>
<ellipse fill="none" stroke="black" cx="937" cy="-640.153" rx="57.3905" ry="18"/>
<text text-anchor="middle" x="937" y="-636.453" font-family="Times,serif" font-size="14.00">22 00110010</text>
</g>
<!-- 5&#45;&#45;22 -->
<g id="edge20" class="edge"><title>5&#45;&#45;22</title>
<path fill="none" stroke="black" d="M531.331,-413.726C562.104,-419.752 603.653,-428.294 640,-437.153 640.462,-437.266 771.666,-473.814 772,-474.153 794.207,-496.765 772.566,-516.686 790,-543.153 816.533,-583.434 866.177,-611.019 900.144,-626.189"/>
<text text-anchor="middle" x="715" y="-477.953" font-family="Times,serif" font-size="14.00">11111011 38</text>
</g>
<!-- 24 -->
<g id="node25" class="node"><title>24</title>
<ellipse fill="none" stroke="black" cx="937" cy="-443.153" rx="57.3905" ry="18"/>
<text text-anchor="middle" x="937" y="-439.453" font-family="Times,serif" font-size="14.00">24 10010100</text>
</g>
<!-- 5&#45;&#45;24 -->
<g id="edge21" class="edge"><title>5&#45;&#45;24</title>
<path fill="none" stroke="black" d="M537.73,-406.744C567.639,-407.854 605.972,-409.6 640,-412.153 725.403,-418.561 824.301,-429.666 883.417,-436.7"/>
<text text-anchor="middle" x="715" y="-426.953" font-family="Times,serif" font-size="14.00">11010100 15</text>
</g>
<!-- 6 -->
<g id="node7" class="node"><title>6</title>
<ellipse fill="none" stroke="black" cx="937" cy="-586.153" rx="52.7911" ry="18"/>
<text text-anchor="middle" x="937" y="-582.453" font-family="Times,serif" font-size="14.00">6 11110101</text>
</g>
<!-- 6&#45;&#45;35 -->
<g id="edge22" class="edge"><title>6&#45;&#45;35</title>
<path fill="none" stroke="black" d="M989.717,-586.456C1017.65,-586.812 1052.73,-587.566 1084,-589.153 1090.31,-589.473 1096.91,-589.891 1103.47,-590.357"/>
<text text-anchor="middle" x="1048" y="-592.953" font-family="Times,serif" font-size="14.00">10111110 83</text>
</g>
<!-- 11 -->
<g id="node12" class="node"><title>11</title>
<ellipse fill="none" stroke="black" cx="485" cy="-697.153" rx="57.3905" ry="18"/>
<text text-anchor="middle" x="485" y="-693.453" font-family="Times,serif" font-size="14.00">11 10101000</text>
</g>
<!-- 7&#45;&#45;11 -->
<g id="edge23" class="edge"><title>7&#45;&#45;11</title>
<path fill="none" stroke="black" d="M319.737,-697.153C352.312,-697.153 394.361,-697.153 427.761,-697.153"/>
<text text-anchor="middle" x="374" y="-700.953" font-family="Times,serif" font-size="14.00">01100100 63</text>
</g>
<!-- 15 -->
<g id="node16" class="node"><title>15</title>
<ellipse fill="none" stroke="black" cx="485" cy="-759.153" rx="57.3905" ry="18"/>
<text text-anchor="middle" x="485" y="-755.453" font-family="Times,serif" font-size="14.00">15 00101011</text>
</g>
<!-- 7&#45;&#45;15 -->
<g id="edge24" class="edge"><title>7&#45;&#45;15</title>
<path fill="none" stroke="black" d="M307.869,-708.597C346.024,-719.549 403.352,-736.004 442.152,-747.141"/>
<text text-anchor="middle" x="374" y="-740.953" font-family="Times,serif" font-size="14.00">01011001 5</text>
</g>
<!-- 18 -->
<g id="node19" class="node"><title>18</title>
<ellipse fill="none" stroke="black" cx="715" cy="-949.153" rx="57.3905" ry="18"/>
<text text-anchor="middle" x="715" y="-945.453" font-family="Times,serif" font-size="14.00">18 00111001</text>
</g>
<!-- 7&#45;&#45;18 -->
<g id="edge25" class="edge"><title>7&#45;&#45;18</title>
<path fill="none" stroke="black" d="M284.59,-714.218C326.464,-756.186 441.568,-864.809 560,-917.153 591.72,-931.173 629.869,-939.158 660.261,-943.645"/>
<text text-anchor="middle" x="485" y="-910.953" font-family="Times,serif" font-size="14.00">10011101 57</text>
</g>
<!-- 7&#45;&#45;32 -->
<g id="edge26" class="edge"><title>7&#45;&#45;32</title>
<path fill="none" stroke="black" d="M270.056,-678.983C275.666,-634.328 293.869,-516.498 338,-429.153 360.944,-383.742 391.058,-387.374 410,-340.153 428.014,-295.244 397.366,-160.609 428,-123.153 443.425,-104.294 591.198,-68.2068 668.052,-50.4879"/>
<text text-anchor="middle" x="485" y="-126.953" font-family="Times,serif" font-size="14.00">10000000 73</text>
</g>
<!-- 8 -->
<g id="node9" class="node"><title>8</title>
<ellipse fill="none" stroke="black" cx="485" cy="-237.153" rx="52.7911" ry="18"/>
<text text-anchor="middle" x="485" y="-233.453" font-family="Times,serif" font-size="14.00">8 10001010</text>
</g>
<!-- 14 -->
<g id="node15" class="node"><title>14</title>
<ellipse fill="none" stroke="black" cx="715" cy="-1003.15" rx="57.3905" ry="18"/>
<text text-anchor="middle" x="715" y="-999.453" font-family="Times,serif" font-size="14.00">14 10000101</text>
</g>
<!-- 8&#45;&#45;14 -->
<g id="edge27" class="edge"><title>8&#45;&#45;14</title>
<path fill="none" stroke="black" d="M494.757,-255.289C508.043,-282.455 534.46,-335.123 560,-378.153 592.716,-433.274 620.274,-437.165 640,-498.153 656.356,-548.723 628.892,-931.684 658,-976.153 661.901,-982.113 667.513,-986.795 673.694,-990.461"/>
<text text-anchor="middle" x="600" y="-501.953" font-family="Times,serif" font-size="14.00">00100101 5</text>
</g>
<!-- 26 -->
<g id="node27" class="node"><title>26</title>
<ellipse fill="none" stroke="black" cx="715" cy="-259.153" rx="57.3905" ry="18"/>
<text text-anchor="middle" x="715" y="-255.453" font-family="Times,serif" font-size="14.00">26 10101010</text>
</g>
<!-- 8&#45;&#45;26 -->
<g id="edge28" class="edge"><title>8&#45;&#45;26</title>
<path fill="none" stroke="black" d="M535.754,-241.954C572.442,-245.494 622.311,-250.306 659.972,-253.94"/>
<text text-anchor="middle" x="600" y="-254.953" font-family="Times,serif" font-size="14.00">01010000 13</text>
</g>
<!-- 27 -->
<g id="node28" class="node"><title>27</title>
<ellipse fill="none" stroke="black" cx="1159" cy="-489.153" rx="57.3905" ry="18"/>
<text text-anchor="middle" x="1159" y="-485.453" font-family="Times,serif" font-size="14.00">27 10000000</text>
</g>
<!-- 8&#45;&#45;27 -->
<g id="edge29" class="edge"><title>8&#45;&#45;27</title>
<path fill="none" stroke="black" d="M527.987,-226.676C638.215,-201.964 937.42,-153.411 1084,-312.153 1115.82,-346.617 1083.18,-373.186 1102,-416.153 1111.29,-437.368 1128.02,-457.97 1140.79,-471.847"/>
<text text-anchor="middle" x="826" y="-209.953" font-family="Times,serif" font-size="14.00">00111110 39</text>
</g>
<!-- 37 -->
<g id="node38" class="node"><title>37</title>
<ellipse fill="none" stroke="black" cx="937" cy="-94.1532" rx="57.3905" ry="18"/>
<text text-anchor="middle" x="937" y="-90.4532" font-family="Times,serif" font-size="14.00">37 00011010</text>
</g>
<!-- 8&#45;&#45;37 -->
<g id="edge30" class="edge"><title>8&#45;&#45;37</title>
<path fill="none" stroke="black" d="M520.095,-223.723C532.584,-218.944 546.872,-213.639 560,-209.153 680.148,-168.097 824.194,-125.993 893.985,-106.037"/>
<text text-anchor="middle" x="715" y="-178.953" font-family="Times,serif" font-size="14.00">01110001 60</text>
</g>
<!-- 9 -->
<g id="node10" class="node"><title>9</title>
<ellipse fill="none" stroke="black" cx="485" cy="-1004.15" rx="52.7911" ry="18"/>
<text text-anchor="middle" x="485" y="-1000.45" font-family="Times,serif" font-size="14.00">9 10111101</text>
</g>
<!-- 9&#45;&#45;10 -->
<g id="edge31" class="edge"><title>9&#45;&#45;10</title>
<path fill="none" stroke="black" d="M520.928,-990.909C529.084,-986.197 536.875,-980.04 542,-972.153 563.662,-938.815 533.809,-824.064 560,-794.153 584.075,-766.659 614.809,-801.628 640,-775.153 670.225,-743.388 639.757,-718.025 658,-678.153 667.26,-657.916 683.648,-638.445 696.312,-625.2"/>
<text text-anchor="middle" x="600" y="-797.953" font-family="Times,serif" font-size="14.00">10100101 44</text>
</g>
<!-- 9&#45;&#45;14 -->
<g id="edge32" class="edge"><title>9&#45;&#45;14</title>
<path fill="none" stroke="black" d="M537.737,-1003.93C573.474,-1003.77 620.986,-1003.56 657.677,-1003.4"/>
<text text-anchor="middle" x="600" y="-1006.95" font-family="Times,serif" font-size="14.00">10001110 72</text>
</g>
<!-- 9&#45;&#45;20 -->
<g id="edge33" class="edge"><title>9&#45;&#45;20</title>
<path fill="none" stroke="black" d="M528.205,-1014.68C538.585,-1017.2 549.681,-1019.83 560,-1022.15 606.938,-1032.73 734.183,-1036.41 772,-1066.15 786.688,-1077.71 774.382,-1093.89 790,-1104.15 819.038,-1123.23 858.81,-1123.32 889.51,-1119.28"/>
<text text-anchor="middle" x="715" y="-1069.95" font-family="Times,serif" font-size="14.00">10100100 69</text>
</g>
<!-- 31 -->
<g id="node32" class="node"><title>31</title>
<ellipse fill="none" stroke="black" cx="937" cy="-1163.15" rx="57.3905" ry="18"/>
<text text-anchor="middle" x="937" y="-1159.45" font-family="Times,serif" font-size="14.00">31 00011110</text>
</g>
<!-- 9&#45;&#45;31 -->
<g id="edge34" class="edge"><title>9&#45;&#45;31</title>
<path fill="none" stroke="black" d="M504.275,-1021.14C534.338,-1048.34 596.996,-1101.98 658,-1135.15 705.302,-1160.88 736.303,-1135.84 772,-1176.15 795.874,-1203.11 761.85,-1232.7 790,-1255.15 815.015,-1275.11 836.141,-1274 862,-1255.15 883.126,-1239.75 864.07,-1219.88 880,-1199.15 886.479,-1190.72 895.534,-1183.7 904.476,-1178.17"/>
<text text-anchor="middle" x="715" y="-1179.95" font-family="Times,serif" font-size="14.00">00011001 13</text>
</g>
<!-- 9&#45;&#45;35 -->
<g id="edge35" class="edge"><title>9&#45;&#45;35</title>
<path fill="none" stroke="black" d="M524.531,-992.251C560.36,-979.089 612.257,-954.268 640,-914.153 667.181,-874.851 631.024,-847.596 658,-808.153 696.597,-751.719 727.726,-757.376 790,-729.153 914.002,-672.956 959.91,-699.156 1084,-643.153 1102.7,-634.712 1122.1,-621.957 1136.34,-611.716"/>
<text text-anchor="middle" x="826" y="-732.953" font-family="Times,serif" font-size="14.00">00001111 83</text>
</g>
<!-- 10&#45;&#45;22 -->
<g id="edge36" class="edge"><title>10&#45;&#45;22</title>
<path fill="none" stroke="black" d="M772.113,-610.373C799.39,-612.06 832.563,-615.01 862,-620.153 872.881,-622.054 884.485,-624.825 895.199,-627.702"/>
<text text-anchor="middle" x="826" y="-623.953" font-family="Times,serif" font-size="14.00">00100001 32</text>
</g>
<!-- 12 -->
<g id="node13" class="node"><title>12</title>
<ellipse fill="none" stroke="black" cx="715" cy="-705.153" rx="57.3905" ry="18"/>
<text text-anchor="middle" x="715" y="-701.453" font-family="Times,serif" font-size="14.00">12 01010001</text>
</g>
<!-- 11&#45;&#45;12 -->
<g id="edge37" class="edge"><title>11&#45;&#45;12</title>
<path fill="none" stroke="black" d="M542.067,-699.12C577.272,-700.356 622.516,-701.943 657.754,-703.18"/>
<text text-anchor="middle" x="600" y="-705.953" font-family="Times,serif" font-size="14.00">00101111 15</text>
</g>
<!-- 16 -->
<g id="node17" class="node"><title>16</title>
<ellipse fill="none" stroke="black" cx="715" cy="-835.153" rx="57.3905" ry="18"/>
<text text-anchor="middle" x="715" y="-831.453" font-family="Times,serif" font-size="14.00">16 01111010</text>
</g>
<!-- 11&#45;&#45;16 -->
<g id="edge38" class="edge"><title>11&#45;&#45;16</title>
<path fill="none" stroke="black" d="M518.88,-711.767C527.546,-717.053 536.109,-723.822 542,-732.153 563.29,-762.265 532.942,-788.096 560,-813.153 574.069,-826.182 619.913,-831.526 657.952,-833.702"/>
<text text-anchor="middle" x="600" y="-835.953" font-family="Times,serif" font-size="14.00">10101010 69</text>
</g>
<!-- 11&#45;&#45;19 -->
<g id="edge39" class="edge"><title>11&#45;&#45;19</title>
<path fill="none" stroke="black" d="M519.542,-711.694C528.113,-716.949 536.461,-723.72 542,-732.153 571.366,-776.862 541.868,-800.83 560,-851.153 583.382,-916.05 615.225,-919.775 640,-984.153 654.964,-1023.04 633.709,-1042.3 658,-1076.15 663.288,-1083.52 670.836,-1089.43 678.684,-1094.07"/>
<text text-anchor="middle" x="600" y="-987.953" font-family="Times,serif" font-size="14.00">00110001 44</text>
</g>
<!-- 11&#45;&#45;27 -->
<g id="edge40" class="edge"><title>11&#45;&#45;27</title>
<path fill="none" stroke="black" d="M542.172,-695.431C580.274,-693.055 626.14,-687.43 640,-674.153 670.402,-645.03 630.236,-612.801 658,-581.153 693.221,-541.005 734.129,-580.811 772,-543.153 789.64,-525.612 769.797,-504.669 790,-490.153 814.677,-472.422 1005.92,-480.493 1102.53,-485.808"/>
<text text-anchor="middle" x="826" y="-493.953" font-family="Times,serif" font-size="14.00">11110110 87</text>
</g>
<!-- 11&#45;&#45;28 -->
<g id="edge41" class="edge"><title>11&#45;&#45;28</title>
<path fill="none" stroke="black" d="M500.358,-679.754C514.441,-663.37 537.081,-638.779 560,-621.153 592.338,-596.285 610.316,-604.137 640,-576.153 650.765,-566.005 647.27,-558.338 658,-548.153 664.985,-541.524 673.596,-535.737 681.954,-530.975"/>
<text text-anchor="middle" x="600" y="-624.953" font-family="Times,serif" font-size="14.00">00100010 49</text>
</g>
<!-- 11&#45;&#45;32 -->
<g id="edge42" class="edge"><title>11&#45;&#45;32</title>
<path fill="none" stroke="black" d="M494.776,-679.093C507.801,-651.296 531.803,-596.008 542,-546.153 558.584,-465.068 527.247,-250.16 560,-174.153 584.334,-117.684 646.42,-76.2075 683.909,-55.3394"/>
<text text-anchor="middle" x="600" y="-177.953" font-family="Times,serif" font-size="14.00">01100000 91</text>
</g>
<!-- 12&#45;&#45;13 -->
<g id="edge43" class="edge"><title>12&#45;&#45;13</title>
<path fill="none" stroke="black" d="M746.762,-720.308C779.595,-737.933 831.056,-769.953 862,-811.153 876.184,-830.038 870.331,-839.605 880,-861.153 893.832,-891.98 913.272,-926.137 925.231,-946.343"/>
<text text-anchor="middle" x="826" y="-814.953" font-family="Times,serif" font-size="14.00">00101110 68</text>
</g>
<!-- 23 -->
<g id="node24" class="node"><title>23</title>
<ellipse fill="none" stroke="black" cx="1159" cy="-909.153" rx="57.3905" ry="18"/>
<text text-anchor="middle" x="1159" y="-905.453" font-family="Times,serif" font-size="14.00">23 11110001</text>
</g>
<!-- 12&#45;&#45;23 -->
<g id="edge44" class="edge"><title>12&#45;&#45;23</title>
<path fill="none" stroke="black" d="M772.159,-703.476C778.181,-703.344 784.217,-703.231 790,-703.153 882.65,-701.901 914.94,-697.83 994,-746.153 1059.93,-786.454 1119.44,-858.312 1144.9,-891.48"/>
<text text-anchor="middle" x="937" y="-749.953" font-family="Times,serif" font-size="14.00">10011111 99</text>
</g>
<!-- 12&#45;&#45;24 -->
<g id="edge45" class="edge"><title>12&#45;&#45;24</title>
<path fill="none" stroke="black" d="M732.21,-687.748C744.274,-674.165 760.563,-654.426 772,-635.153 782.573,-617.336 778.545,-609.416 790,-592.153 826.243,-537.532 884.221,-485.665 915.081,-459.962"/>
<text text-anchor="middle" x="826" y="-595.953" font-family="Times,serif" font-size="14.00">01110001 81</text>
</g>
<!-- 12&#45;&#45;27 -->
<g id="edge46" class="edge"><title>12&#45;&#45;27</title>
<path fill="none" stroke="black" d="M730.602,-687.649C744.514,-671.892 766.734,-648.994 790,-634.153 818.947,-615.689 838.817,-631.48 862,-606.153 881.374,-584.988 858.845,-563.538 880,-544.153 882.128,-542.203 1030.66,-513.53 1109.71,-498.381"/>
<text text-anchor="middle" x="937" y="-547.953" font-family="Times,serif" font-size="14.00">11111110 55</text>
</g>
<!-- 12&#45;&#45;38 -->
<g id="edge47" class="edge"><title>12&#45;&#45;38</title>
<path fill="none" stroke="black" d="M725.582,-722.888C745.029,-758.826 787.505,-837.036 790,-839.153 797.926,-845.878 1404.78,-1058.23 1564.06,-1113.9"/>
<text text-anchor="middle" x="1159" y="-993.953" font-family="Times,serif" font-size="14.00">01000010 64</text>
</g>
<!-- 29 -->
<g id="node30" class="node"><title>29</title>
<ellipse fill="none" stroke="black" cx="1381" cy="-761.153" rx="57.3905" ry="18"/>
<text text-anchor="middle" x="1381" y="-757.453" font-family="Times,serif" font-size="14.00">29 00101111</text>
</g>
<!-- 14&#45;&#45;29 -->
<g id="edge48" class="edge"><title>14&#45;&#45;29</title>
<path fill="none" stroke="black" d="M746.64,-1018.17C754.909,-1022.31 763.828,-1026.84 772,-1031.15 780.095,-1035.42 781.141,-1038.86 790,-1041.15 820.977,-1049.18 830.005,-1041.73 862,-1041.15 1021.48,-1038.28 1089.07,-1078.75 1216,-982.153 1292.61,-923.848 1350.22,-820.41 1371.28,-779.01"/>
<text text-anchor="middle" x="1048" y="-1050.95" font-family="Times,serif" font-size="14.00">10010011 26</text>
</g>
<!-- 14&#45;&#45;31 -->
<g id="edge49" class="edge"><title>14&#45;&#45;31</title>
<path fill="none" stroke="black" d="M748.539,-1017.93C756.804,-1022.67 765.247,-1028.45 772,-1035.15 783.305,-1046.38 779.52,-1054.15 790,-1066.15 823.334,-1104.32 836.936,-1109.44 880,-1136.15 887.154,-1140.59 895.148,-1144.83 902.805,-1148.58"/>
<text text-anchor="middle" x="826" y="-1127.95" font-family="Times,serif" font-size="14.00">00110001 45</text>
</g>
<!-- 15&#45;&#45;28 -->
<g id="edge50" class="edge"><title>15&#45;&#45;28</title>
<path fill="none" stroke="black" d="M542.361,-760.137C575.616,-757.535 615.803,-748.28 640,-721.153 681.76,-674.337 632.447,-638.448 658,-581.153 666.312,-562.516 681.765,-545.211 694.336,-533.15"/>
<text text-anchor="middle" x="600" y="-760.953" font-family="Times,serif" font-size="14.00">00100111 100</text>
</g>
<!-- 15&#45;&#45;33 -->
<g id="edge51" class="edge"><title>15&#45;&#45;33</title>
<path fill="none" stroke="black" d="M500.985,-776.502C513.327,-791.487 530.592,-814.139 542,-836.153 553.446,-858.241 540.956,-873.148 560,-889.153 596.5,-919.829 725.396,-912.089 772,-922.153 780.116,-923.906 781.986,-924.983 790,-927.153 821.945,-935.805 837.209,-924.228 862,-946.153 878.135,-960.424 863.674,-977.101 880,-991.153 950.594,-1051.92 1008.55,-984.542 1084,-1039.15 1120.3,-1065.43 1142.39,-1115.5 1152.13,-1142.25"/>
<text text-anchor="middle" x="826" y="-949.953" font-family="Times,serif" font-size="14.00">00100000 66</text>
</g>
<!-- 16&#45;&#45;20 -->
<g id="edge52" class="edge"><title>16&#45;&#45;20</title>
<path fill="none" stroke="black" d="M750.699,-849.425C789.045,-865.865 847.342,-893.06 862,-912.153 883.929,-940.717 868.21,-957.127 880,-991.153 892.77,-1028.01 913.66,-1068.61 925.994,-1091.28"/>
<text text-anchor="middle" x="826" y="-915.953" font-family="Times,serif" font-size="14.00">00001000 39</text>
</g>
<!-- 16&#45;&#45;35 -->
<g id="edge53" class="edge"><title>16&#45;&#45;35</title>
<path fill="none" stroke="black" d="M759.616,-823.742C836.495,-803.602 988.575,-763.627 994,-761.153 1037.97,-741.101 1049.52,-734.009 1084,-700.153 1111.37,-673.278 1135.37,-635.118 1148.17,-612.969"/>
<text text-anchor="middle" x="937" y="-793.953" font-family="Times,serif" font-size="14.00">11010100 29</text>
</g>
<!-- 17 -->
<g id="node18" class="node"><title>17</title>
<ellipse fill="none" stroke="black" cx="485" cy="-519.153" rx="57.3905" ry="18"/>
<text text-anchor="middle" x="485" y="-515.453" font-family="Times,serif" font-size="14.00">17 01100101</text>
</g>
<!-- 17&#45;&#45;28 -->
<g id="edge54" class="edge"><title>17&#45;&#45;28</title>
<path fill="none" stroke="black" d="M542.36,-518.412C577.437,-517.95 622.395,-517.359 657.499,-516.897"/>
<text text-anchor="middle" x="600" y="-520.953" font-family="Times,serif" font-size="14.00">10011100 24</text>
</g>
<!-- 18&#45;&#45;20 -->
<g id="edge55" class="edge"><title>18&#45;&#45;20</title>
<path fill="none" stroke="black" d="M752.117,-963.042C759.143,-966.685 766.137,-971.052 772,-976.153 782.88,-985.62 779.603,-993.158 790,-1003.15 817.036,-1029.14 831.543,-1025.27 862,-1047.15 881.601,-1061.23 902.565,-1079.09 917.157,-1092.02"/>
<text text-anchor="middle" x="826" y="-1050.95" font-family="Times,serif" font-size="14.00">01101001 68</text>
</g>
<!-- 18&#45;&#45;29 -->
<g id="edge56" class="edge"><title>18&#45;&#45;29</title>
<path fill="none" stroke="black" d="M732.899,-932.044C746.931,-918.92 768.077,-901.515 790,-892.153 874.34,-856.139 904.16,-879.566 994,-861.153 1120.82,-835.162 1268.33,-793.784 1338.63,-773.367"/>
<text text-anchor="middle" x="1048" y="-859.953" font-family="Times,serif" font-size="14.00">11011001 65</text>
</g>
<!-- 18&#45;&#45;34 -->
<g id="edge57" class="edge"><title>18&#45;&#45;34</title>
<path fill="none" stroke="black" d="M755.683,-961.911C762.008,-965.579 767.831,-970.244 772,-976.153 815.038,-1037.15 745.317,-1083.35 790,-1143.15 810.75,-1170.92 840.591,-1145.89 862,-1173.15 893.948,-1213.84 851.209,-1245.17 880,-1288.15 885.444,-1296.28 893.55,-1302.78 901.915,-1307.84"/>
<text text-anchor="middle" x="826" y="-1176.95" font-family="Times,serif" font-size="14.00">00010101 13</text>
</g>
<!-- 36 -->
<g id="node37" class="node"><title>36</title>
<ellipse fill="none" stroke="black" cx="937" cy="-834.153" rx="57.3905" ry="18"/>
<text text-anchor="middle" x="937" y="-830.453" font-family="Times,serif" font-size="14.00">36 10110111</text>
</g>
<!-- 18&#45;&#45;36 -->
<g id="edge58" class="edge"><title>18&#45;&#45;36</title>
<path fill="none" stroke="black" d="M723.675,-931.076C734.64,-907.727 757.163,-867.869 790,-849.153 817.45,-833.507 852.562,-829.499 881.474,-829.525"/>
<text text-anchor="middle" x="826" y="-852.953" font-family="Times,serif" font-size="14.00">01111011 78</text>
</g>
<!-- 19&#45;&#45;34 -->
<g id="edge59" class="edge"><title>19&#45;&#45;34</title>
<path fill="none" stroke="black" d="M750.028,-1122.44C758.094,-1127.12 766.067,-1133 772,-1140.15 787.614,-1158.98 777.359,-1171.22 790,-1192.15 820.229,-1242.22 834.585,-1251.3 880,-1288.15 888.302,-1294.89 898.058,-1301.26 907.08,-1306.63"/>
<text text-anchor="middle" x="826" y="-1275.95" font-family="Times,serif" font-size="14.00">01111001 95</text>
</g>
<!-- 19&#45;&#45;36 -->
<g id="edge60" class="edge"><title>19&#45;&#45;36</title>
<path fill="none" stroke="black" d="M751.316,-1094.07C759.164,-1089.43 766.712,-1083.52 772,-1076.15 796.291,-1042.3 761.509,-1014.55 790,-984.153 812.632,-960.005 835.8,-985.374 862,-965.153 867.053,-961.253 907.545,-886.911 926.401,-851.991"/>
<text text-anchor="middle" x="826" y="-987.953" font-family="Times,serif" font-size="14.00">11111011 34</text>
</g>
<!-- 20&#45;&#45;23 -->
<g id="edge61" class="edge"><title>20&#45;&#45;23</title>
<path fill="none" stroke="black" d="M950.768,-1091.61C964.871,-1072.68 988.683,-1042.06 1012,-1018.15 1048.76,-980.468 1058.96,-971.458 1102,-941.153 1110.33,-935.287 1119.82,-929.548 1128.58,-924.587"/>
<text text-anchor="middle" x="1048" y="-1021.95" font-family="Times,serif" font-size="14.00">00110100 35</text>
</g>
<!-- 20&#45;&#45;33 -->
<g id="edge62" class="edge"><title>20&#45;&#45;33</title>
<path fill="none" stroke="black" d="M985.109,-1119.03C1013.76,-1125.15 1051.06,-1133.32 1084,-1141.15 1093.94,-1143.52 1104.59,-1146.18 1114.63,-1148.74"/>
<text text-anchor="middle" x="1048" y="-1144.95" font-family="Times,serif" font-size="14.00">10100111 69</text>
</g>
<!-- 22&#45;&#45;29 -->
<g id="edge63" class="edge"><title>22&#45;&#45;29</title>
<path fill="none" stroke="black" d="M980.782,-651.865C1065.28,-674.996 1252.68,-726.299 1337.19,-749.435"/>
<text text-anchor="middle" x="1159" y="-717.953" font-family="Times,serif" font-size="14.00">10011100 10</text>
</g>
<!-- 22&#45;&#45;35 -->
<g id="edge64" class="edge"><title>22&#45;&#45;35</title>
<path fill="none" stroke="black" d="M985.466,-630.444C1022.48,-622.874 1073.63,-612.411 1110.62,-604.845"/>
<text text-anchor="middle" x="1048" y="-627.953" font-family="Times,serif" font-size="14.00">11000100 74</text>
</g>
<!-- 24&#45;&#45;27 -->
<g id="edge65" class="edge"><title>24&#45;&#45;27</title>
<path fill="none" stroke="black" d="M993.373,-446.227C1020.92,-448.605 1054.54,-452.796 1084,-460.153 1098.06,-463.663 1113.03,-469.173 1125.81,-474.451"/>
<text text-anchor="middle" x="1048" y="-463.953" font-family="Times,serif" font-size="14.00">00111110 27</text>
</g>
<!-- 25 -->
<g id="node26" class="node"><title>25</title>
<ellipse fill="none" stroke="black" cx="485" cy="-165.153" rx="57.3905" ry="18"/>
<text text-anchor="middle" x="485" y="-161.453" font-family="Times,serif" font-size="14.00">25 11100110</text>
</g>
<!-- 25&#45;&#45;26 -->
<g id="edge66" class="edge"><title>25&#45;&#45;26</title>
<path fill="none" stroke="black" d="M522.65,-178.734C554.007,-190.519 600.244,-208.293 640,-225.153 654.058,-231.115 669.424,-238.098 682.494,-244.179"/>
<text text-anchor="middle" x="600" y="-228.953" font-family="Times,serif" font-size="14.00">11110110 43</text>
</g>
<!-- 25&#45;&#45;30 -->
<g id="edge67" class="edge"><title>25&#45;&#45;30</title>
<path fill="none" stroke="black" d="M512.077,-181.075C522.681,-188.705 534.24,-198.688 542,-210.153 557.367,-232.857 540.442,-249.941 560,-269.153 560.26,-269.409 626.501,-288.278 672.011,-301.221"/>
<text text-anchor="middle" x="600" y="-294.953" font-family="Times,serif" font-size="14.00">01010110 1</text>
</g>
<!-- 25&#45;&#45;37 -->
<g id="edge68" class="edge"><title>25&#45;&#45;37</title>
<path fill="none" stroke="black" d="M511.228,-148.977C521.113,-142.285 532.369,-134.213 542,-126.153 550.676,-118.892 549.63,-112.677 560,-108.153 615.833,-83.7994 789.872,-87.4996 880.255,-91.3036"/>
<text text-anchor="middle" x="715" y="-94.9532" font-family="Times,serif" font-size="14.00">11011110 1</text>
</g>
<!-- 26&#45;&#45;36 -->
<g id="edge69" class="edge"><title>26&#45;&#45;36</title>
<path fill="none" stroke="black" d="M752.778,-272.789C759.677,-276.433 766.454,-280.865 772,-286.153 832.737,-344.069 839.284,-371.363 862,-452.153 872.54,-489.64 859.596,-768.987 880,-802.153 884.694,-809.783 891.923,-815.769 899.644,-820.394"/>
<text text-anchor="middle" x="826" y="-455.953" font-family="Times,serif" font-size="14.00">00101011 2</text>
</g>
<!-- 39 -->
<g id="node40" class="node"><title>39</title>
<ellipse fill="none" stroke="black" cx="1603" cy="-397.153" rx="57.3905" ry="18"/>
<text text-anchor="middle" x="1603" y="-393.453" font-family="Times,serif" font-size="14.00">39 00011100</text>
</g>
<!-- 26&#45;&#45;39 -->
<g id="edge70" class="edge"><title>26&#45;&#45;39</title>
<path fill="none" stroke="black" d="M735.229,-242.179C749.355,-230.758 769.571,-216.492 790,-209.153 851.348,-187.113 870.813,-195.153 936,-195.153 936,-195.153 936,-195.153 1382,-195.153 1490.37,-195.153 1568.43,-329.79 1593.44,-379.227"/>
<text text-anchor="middle" x="1159" y="-198.953" font-family="Times,serif" font-size="14.00">10011011 73</text>
</g>
<!-- 27&#45;&#45;29 -->
<g id="edge71" class="edge"><title>27&#45;&#45;29</title>
<path fill="none" stroke="black" d="M1180.98,-505.832C1211.16,-530.53 1267.42,-579.304 1306,-629.153 1334.94,-666.551 1359.77,-716.617 1371.96,-743.047"/>
<text text-anchor="middle" x="1270" y="-632.953" font-family="Times,serif" font-size="14.00">10011101 97</text>
</g>
<!-- 28&#45;&#45;36 -->
<g id="edge72" class="edge"><title>28&#45;&#45;36</title>
<path fill="none" stroke="black" d="M733.993,-533.192C746.145,-545.533 761.776,-563.149 772,-581.153 784.492,-603.152 774.836,-614.904 790,-635.153 813.353,-666.337 841.364,-652.108 862,-685.153 889.868,-729.778 850.2,-758.795 880,-802.153 885.137,-809.628 892.63,-815.576 900.473,-820.216"/>
<text text-anchor="middle" x="826" y="-688.953" font-family="Times,serif" font-size="14.00">01111111 53</text>
</g>
<!-- 28&#45;&#45;39 -->
<g id="edge73" class="edge"><title>28&#45;&#45;39</title>
<path fill="none" stroke="black" d="M754.098,-502.905C760.299,-500.08 766.489,-496.824 772,-493.153 781.416,-486.882 781.223,-482.292 790,-475.153 827.105,-444.973 835.018,-432.409 880,-416.153 950.254,-390.765 972.299,-397.153 1047,-397.153 1047,-397.153 1047,-397.153 1382,-397.153 1437.57,-397.153 1501.04,-397.153 1545.48,-397.153"/>
<text text-anchor="middle" x="1159" y="-400.953" font-family="Times,serif" font-size="14.00">01110110 72</text>
</g>
<!-- 29&#45;&#45;38 -->
<g id="edge74" class="edge"><title>29&#45;&#45;38</title>
<path fill="none" stroke="black" d="M1399.96,-778.291C1429.95,-807.732 1490.62,-870.875 1528,-934.153 1563.41,-994.095 1587.65,-1074.02 1597.31,-1109.22"/>
<text text-anchor="middle" x="1492" y="-937.953" font-family="Times,serif" font-size="14.00">10010100 69</text>
</g>
<!-- 29&#45;&#45;39 -->
<g id="edge75" class="edge"><title>29&#45;&#45;39</title>
<path fill="none" stroke="black" d="M1392.76,-743.35C1430.11,-681.546 1553.94,-476.673 1591.26,-414.922"/>
<text text-anchor="middle" x="1492" y="-635.953" font-family="Times,serif" font-size="14.00">11110100 3</text>
</g>
<!-- 30&#45;&#45;35 -->
<g id="edge76" class="edge"><title>30&#45;&#45;35</title>
<path fill="none" stroke="black" d="M770.987,-309.456C863.106,-304.587 1042.62,-301.204 1084,-345.153 1110.19,-372.974 1088.51,-480.403 1102,-516.153 1110.9,-539.747 1128.6,-562.815 1141.73,-577.872"/>
<text text-anchor="middle" x="937" y="-315.953" font-family="Times,serif" font-size="14.00">01001000 87</text>
</g>
<!-- 31&#45;&#45;33 -->
<g id="edge77" class="edge"><title>31&#45;&#45;33</title>
<path fill="none" stroke="black" d="M994.159,-1161.52C1000.18,-1161.38 1006.22,-1161.25 1012,-1161.15 1041.53,-1160.65 1074.41,-1160.4 1101.49,-1160.27"/>
<text text-anchor="middle" x="1048" y="-1164.95" font-family="Times,serif" font-size="14.00">01001101 32</text>
</g>
<!-- 32&#45;&#45;37 -->
<g id="edge78" class="edge"><title>32&#45;&#45;37</title>
<path fill="none" stroke="black" d="M768.601,-46.5155C796.634,-50.5666 831.528,-56.6692 862,-65.1532 875.692,-68.9652 890.345,-74.4043 902.97,-79.5441"/>
<text text-anchor="middle" x="826" y="-68.9532" font-family="Times,serif" font-size="14.00">01001101 95</text>
</g>
<!-- 34&#45;&#45;38 -->
<g id="edge79" class="edge"><title>34&#45;&#45;38</title>
<path fill="none" stroke="black" d="M994.208,-1321.14C1067.02,-1318.81 1197.47,-1311.16 1306,-1286.15 1366.98,-1272.1 1380.49,-1261.81 1438,-1237.15 1478.92,-1219.61 1491.04,-1217.98 1528,-1193.15 1549.43,-1178.75 1571.16,-1158.57 1585.47,-1144.32"/>
<text text-anchor="middle" x="1270" y="-1302.95" font-family="Times,serif" font-size="14.00">11011001 76</text>
</g>
</g>
</svg>
